<svg xmlns="http://www.w3.org/2000/svg" xmlns:xlink="http://www.w3.org/1999/xlink" viewBox="0 0 219.32 219.32"><defs><style>.cls-1{fill:url(#linear-gradient);}.cls-2{fill:#fff;}</style><linearGradient id="linear-gradient" x1="37.73" y1="37.84" x2="181.59" y2="181.71" gradientUnits="userSpaceOnUse"><stop offset="0" stop-color="#4676ed"/><stop offset="0.19" stop-color="#436de4"/><stop offset="0.49" stop-color="#3c55cd"/><stop offset="0.87" stop-color="#302ea8"/><stop offset="1" stop-color="#2b1e99"/></linearGradient></defs><g id="ELEMENTS"><path class="cls-1" d="M211.39,109.77A101.73,101.73,0,1,0,93.77,210.27V139.18H67.94V109.77H93.77V87.36c0-25.49,15.18-39.58,38.42-39.58a156.16,156.16,0,0,1,22.77,2v25H142.13c-12.63,0-16.57,7.85-16.57,15.89v19.08h28.21l-4.51,29.41h-23.7v71.09A101.76,101.76,0,0,0,211.39,109.77Z"/><path class="cls-2" d="M149.26,139.18l4.51-29.41H125.56V90.69c0-8,3.94-15.89,16.57-15.89H155v-25a156.16,156.16,0,0,0-22.77-2c-23.24,0-38.42,14.09-38.42,39.58v22.41H67.94v29.41H93.77v71.09a103.32,103.32,0,0,0,31.79,0V139.18Z"/></g></svg>