<svg xmlns="http://www.w3.org/2000/svg" xmlns:xlink="http://www.w3.org/1999/xlink" viewBox="0 0 219.32 219.32"><defs><style>.cls-1{fill:url(#Degradado_sin_nombre_4);}.cls-2{fill:#fff;}</style><linearGradient id="Degradado_sin_nombre_4" x1="181.59" y1="37.84" x2="37.73" y2="181.69" gradientUnits="userSpaceOnUse"><stop offset="0" stop-color="#3cf"/><stop offset="1" stop-color="#337fff"/></linearGradient></defs><g id="ELEMENTS"><circle class="cls-1" cx="109.66" cy="109.76" r="101.72"/><path class="cls-2" d="M165.86,74.91a46,46,0,0,1-11.22,3.2c1.81-.31,4.46-3.57,5.52-4.89a20.67,20.67,0,0,0,3.72-6.79c.1-.2.17-.44,0-.59a.69.69,0,0,0-.6,0A56.57,56.57,0,0,1,150,71a.89.89,0,0,1-.92-.24,10.1,10.1,0,0,0-1.16-1.19,23.61,23.61,0,0,0-6.44-4A22.44,22.44,0,0,0,131.55,64a23.52,23.52,0,0,0-9.37,2.65,24.2,24.2,0,0,0-7.57,6.18,23.19,23.19,0,0,0-4.51,9,24.42,24.42,0,0,0-.24,9.56c.07.53,0,.6-.46.53C91.13,89.25,76,82.71,63.69,68.71c-.53-.61-.82-.61-1.26,0-5.38,8.07-2.77,21,3.95,27.39.9.85,1.82,1.69,2.81,2.47a23.44,23.44,0,0,1-8.82-2.47c-.53-.34-.8-.15-.85.46a13.92,13.92,0,0,0,.15,2.62A23.43,23.43,0,0,0,74.11,117.9a13.61,13.61,0,0,0,2.93.9c-1.76.38-3.58.66-8.65.27-.63-.13-.87.19-.63.79,3.81,10.38,12,13.47,18.18,15.22.82.15,1.64.15,2.47.34,0,.08-.1.08-.15.15-2,3.11-9.11,5.43-12.41,6.58A44.59,44.59,0,0,1,57,144.56c-1-.15-1.23-.14-1.5,0s0,.41.29.68c1.28.85,2.59,1.6,3.93,2.32a62.13,62.13,0,0,0,12.6,5.05c22.64,6.25,48.15,1.65,65.16-15.24,13.35-13.27,18-31.56,18-49.88,0-.72.85-1.12,1.35-1.5a43.83,43.83,0,0,0,8.87-9.22,2.81,2.81,0,0,0,.59-1.76v-.1C166.32,74.62,166.31,74.7,165.86,74.91Z"/></g></svg>