<svg xmlns="http://www.w3.org/2000/svg" xmlns:xlink="http://www.w3.org/1999/xlink" viewBox="0 0 219.32 219.32"><defs><style>.cls-1{fill:url(#Degradado_sin_nombre_7);}.cls-2{fill:#fff;}</style><linearGradient id="Degradado_sin_nombre_7" x1="179.27" y1="40.05" x2="40.05" y2="179.27" gradientUnits="userSpaceOnUse"><stop offset="0" stop-color="red"/><stop offset="1" stop-color="#850000"/></linearGradient></defs><g id="ELEMENTS"><circle class="cls-1" cx="109.66" cy="109.66" r="98.45"/><path class="cls-2" d="M162.37,95.35a23.64,23.64,0,0,0-23.64-23.64H78.28A23.63,23.63,0,0,0,54.64,95.35v28.13a23.64,23.64,0,0,0,23.64,23.64h60.45a23.65,23.65,0,0,0,23.64-23.64Zm-35.55,16.17L99.71,124.93c-1.06.57-4.67-.19-4.67-1.4V96c0-1.23,3.64-2,4.7-1.39l26,14.12C126.78,109.35,127.92,110.92,126.82,111.52Z"/></g></svg>