<svg xmlns="http://www.w3.org/2000/svg" xmlns:xlink="http://www.w3.org/1999/xlink" viewBox="0 0 219.32 219.32"><defs><style>.cls-1{fill:url(#Degradado_sin_nombre_3);}.cls-2{fill:#fff;}</style><linearGradient id="Degradado_sin_nombre_3" x1="181.16" y1="37.66" x2="38.16" y2="180.65" gradientUnits="userSpaceOnUse"><stop offset="0" stop-color="#fbe18a"/><stop offset="0.21" stop-color="#fcbb45"/><stop offset="0.38" stop-color="#f75274"/><stop offset="0.52" stop-color="#d53692"/><stop offset="0.74" stop-color="#8f39ce"/><stop offset="1" stop-color="#5b4fe9"/></linearGradient></defs><g id="ELEMENTS"><circle class="cls-1" cx="109.66" cy="109.16" r="101.11"/><path class="cls-2" d="M141.05,70.9A7,7,0,1,0,148,77.85,7,7,0,0,0,141.05,70.9Z"/><path class="cls-2" d="M110.15,79.82A29.2,29.2,0,1,0,139.34,109,29.23,29.23,0,0,0,110.15,79.82Zm0,47.9A18.71,18.71,0,1,1,128.85,109,18.73,18.73,0,0,1,110.15,127.72Z"/><path class="cls-2" d="M133.33,168.29H86a35.65,35.65,0,0,1-35.61-35.61V85.35A35.65,35.65,0,0,1,86,49.74h47.34a35.65,35.65,0,0,1,35.61,35.61v47.33A35.65,35.65,0,0,1,133.33,168.29ZM86,60.89A24.48,24.48,0,0,0,61.54,85.35v47.33A24.48,24.48,0,0,0,86,157.14h47.34a24.48,24.48,0,0,0,24.45-24.46V85.35a24.48,24.48,0,0,0-24.45-24.46Z"/></g></svg>